<?xml version="1.0" encoding="UTF-8"?>
<svg width="16px" height="16px" viewBox="0 0 16 16" version="1.1" xmlns="http://www.w3.org/2000/svg" xmlns:xlink="http://www.w3.org/1999/xlink">
    <title>搜索</title>
    <defs>
        <polygon id="path-1" points="0 0 11.9959875 0 11.9959875 11.99595 0 11.99595"></polygon>
    </defs>
    <g id="风格" stroke="none" stroke-width="1" fill="none" fill-rule="evenodd">
        <g id="首页-demo" transform="translate(-30.000000, -148.000000)">
            <g id="搜索" transform="translate(16.000000, 140.000000)">
                <g id="搜索-2" transform="translate(14.000000, 8.000000)">
                    <g id="搜索" transform="translate(2.000000, 2.000000)">
                        <mask id="mask-2" fill="white">
                            <use xlink:href="#path-1"></use>
                        </mask>
                        <g id="Clip-2"></g>
                        <path d="M10.4995921,5.6861791 C10.4995921,3.02890734 8.34455082,0.873866061 5.68727905,0.873866061 C3.03000728,0.873866061 0.874966008,3.02890734 0.874966008,5.6861791 C0.874966008,8.34432583 3.03000728,10.4993671 5.68727905,10.4993671 C8.34455082,10.4993671 10.4995921,8.34432583 10.4995921,5.6861791 M13.873461,13.873236 C13.7115923,14.0368547 13.4473526,14.0368547 13.2854839,13.873236 L9.38576036,9.97438751 C8.38917408,10.8353541 7.10734888,11.3734582 5.68727905,11.3734582 C2.54615108,11.3734582 0,8.82818204 0,5.6861791 C0,2.54505114 2.54615108,-0.000224981011 5.68727905,-0.000224981011 C8.82840702,-0.000224981011 11.3745581,2.54505114 11.3745581,5.6861791 C11.3745581,7.10624893 10.835579,8.3889491 9.97461249,9.38641035 L13.873461,13.2852589 C14.0370797,13.4471276 14.0370797,13.7113673 13.873461,13.873236" id="Fill-1" fill="#999999" mask="url(#mask-2)"></path>
                    </g>
                </g>
            </g>
        </g>
    </g>
</svg>